<svg xmlns="http://www.w3.org/2000/svg" viewBox="0 0 220 182" width="220" height="182">
    <path d="M159 54.5c0 2.5-1.5 5-4 5h-95c-2.5 0-5-2.5-5-5s1.5-5 4-5h8v-26c0-11.7 9-24 40-24 29.6 0 40 11.9 40 24v26h8c2.5 0 4 2.5 4 5zm-32 25c-3.8 0-7.5 1-11 1-4.4.1-6.4-1.8-7-7h-4c-.6 5.2-2.7 7-7 7-3.5 0-7.2-1-11-1-10.4 0-15.7 4.1-16 15h4c.4-5.3 2.1-7 10-7 2.2 0 6 1 9 1 8.2 0 10.7-3.2 13-9 2.3 5.8 4.8 9 13 9 3 0 6.8-1 9-1 7.9 0 9.6 1.7 10 7h4c-.3-10.9-5.6-15-16-15zm-127 102h8v-25h13v-8h-13v-17h13v-8h-21v58zm25 0h8v-21h9v21h8v-58h-25v58zm8-50h9v21h-9v-21zm38 12l-9 3v-23h-8v58h8v-21l9 2v19h8v-25l-11-4 11-4v-25h-8v20zm12 38h21v-7h-13v-18h13v-8h-13v-17h13v-8h-21v58zm50-37v-8c0-8.4-4.7-13-13-13h-12v58h8v-50h4c2.8 0 5 2.2 5 5v8c0 2.8-2.2 4-5 4h-4l10 33h8l-7-26c4.1-1.8 6-5.1 6-11zm16-21h-12v58h8v-25h4c8.3 0 13-3.6 13-12v-8c0-8.4-4.7-13-13-13zm5 21c0 2.8-2.2 4-5 4h-4v-17h4c2.8 0 5 2.2 5 5v8zm29 4h-9v-25h-8v58h8v-25h9v25h8v-58h-8v25zm25-25h-13v58h8v-25h5c8.3 0 12-3.6 12-12v-8c0-8.4-3.7-13-12-13zm4 21c0 2.8-1.2 4-4 4h-5v-17h5c2.8 0 4 2.2 4 5v8z"/>
</svg>
