<svg xmlns="http://www.w3.org/2000/svg" viewBox="0 0 220 58" width="220" height="58">
    <path d="M0 0h21v8h-13v17h13v8h-13v25h-8v-58zm25 0h25v58h-8v-21h-9v21h-8v-58zm8 29h9v-21h-9v21zm38-9l-9 3v-23h-8v58h8v-21l9 2v19h8v-25l-11-4 11-4v-25h-8v20zm12 38h21v-7h-13v-18h13v-8h-13v-17h13v-8h-21v58zm50-37v-8c0-8.4-4.7-13-13-13h-12v58h8v-50h4c2.8 0 5 2.2 5 5v8c0 2.8-2.2 4-5 4h-4l10 33h8l-7-26c4.1-1.8 6-5.1 6-11zm29-8v8c0 8.4-4.7 12-13 12h-4v25h-8v-58h12c8.3 0 13 4.6 13 13zm-8 0c0-2.8-2.2-5-5-5h-4v17h4c2.8 0 5-1.2 5-4v-8zm29 12h-9v-25h-8v58h8v-25h9v25h8v-58h-8v25zm37-12v8c0 8.4-3.7 12-12 12h-5v25h-8v-58h13c8.3 0 12 4.6 12 13zm-8 0c0-2.8-1.2-5-4-5h-5v17h5c2.8 0 4-1.2 4-4v-8z"/>
</svg>
